<svg width="1200" height="720" viewBox="0 0 1200 720" fill="none" xmlns="http://www.w3.org/2000/svg">
  <defs>
    <linearGradient id="bg4" x1="0" y1="0" x2="1200" y2="720" gradientUnits="userSpaceOnUse">
      <stop stop-color="#0F1621"/>
      <stop offset="1" stop-color="#24312B"/>
    </linearGradient>
  </defs>
  <rect width="1200" height="720" rx="36" fill="url(#bg4)"/>
  <rect x="34" y="30" width="1132" height="60" rx="18" fill="#18222E"/>
  <text x="62" y="66" fill="#F3FBFF" font-size="22" font-family="Arial" font-weight="700">SSO + SPXL Ladder Audit</text>
  <rect x="52" y="118" width="690" height="238" rx="28" fill="#162230" stroke="#32505A"/>
  <text x="84" y="154" fill="#8FD8C2" font-size="16" font-family="Arial" font-weight="700">FULL BACKTEST AUDIT</text>
  <text x="84" y="204" fill="#F3FBFF" font-size="44" font-family="Arial" font-weight="700">Trend SSO is the real engine</text>
  <text x="84" y="246" fill="#B8CAD4" font-size="22" font-family="Arial">The SPXL kicker is visible, but the evidence says simplicity is still doing most of the work.</text>
  <rect x="84" y="286" width="164" height="34" rx="17" fill="#214E48"/>
  <rect x="260" y="286" width="154" height="34" rx="17" fill="#193D59"/>
  <rect x="426" y="286" width="132" height="34" rx="17" fill="#433E1D"/>
  <rect x="770" y="118" width="396" height="238" rx="28" fill="#162230" stroke="#32505A"/>
  <rect x="804" y="158" width="328" height="44" rx="16" fill="#214E48"/>
  <rect x="804" y="218" width="328" height="44" rx="16" fill="#193D59"/>
  <rect x="804" y="278" width="328" height="44" rx="16" fill="#3D2E1F"/>
  <text x="52" y="390" fill="#A9BFCD" font-size="16" font-family="Arial" font-weight="700">STRESS TESTS AND ABLATIONS</text>
  <rect x="52" y="412" width="1114" height="256" rx="30" fill="#121E2A" stroke="#32505A"/>
  <rect x="84" y="456" width="506" height="176" rx="22" fill="#1B2E3B"/>
  <rect x="620" y="456" width="514" height="176" rx="22" fill="#1B2E3B"/>
  <rect x="116" y="490" width="440" height="20" rx="10" fill="#35556B"/>
  <rect x="116" y="528" width="374" height="20" rx="10" fill="#35556B"/>
  <rect x="116" y="566" width="326" height="20" rx="10" fill="#35556B"/>
  <rect x="654" y="486" width="132" height="114" rx="18" fill="#214E48"/>
  <rect x="802" y="468" width="132" height="132" rx="18" fill="#193D59"/>
  <rect x="950" y="504" width="150" height="96" rx="18" fill="#3D2E1F"/>
</svg>
