<svg width="1200" height="720" viewBox="0 0 1200 720" fill="none" xmlns="http://www.w3.org/2000/svg">
  <defs>
    <linearGradient id="bg2" x1="0" y1="0" x2="1200" y2="720" gradientUnits="userSpaceOnUse">
      <stop stop-color="#131A2B"/>
      <stop offset="1" stop-color="#1B3025"/>
    </linearGradient>
  </defs>
  <rect width="1200" height="720" rx="36" fill="url(#bg2)"/>
  <rect x="34" y="30" width="1132" height="60" rx="18" fill="#1B2337"/>
  <text x="62" y="66" fill="#F5F9FF" font-size="22" font-family="Arial" font-weight="700">Strategy Comparison Dashboard</text>
  <rect x="52" y="120" width="708" height="228" rx="26" fill="#172235" stroke="#31475B"/>
  <text x="84" y="158" fill="#8FD8C2" font-size="16" font-family="Arial" font-weight="700">WINNERS</text>
  <rect x="84" y="184" width="188" height="116" rx="20" fill="#143C46"/>
  <rect x="292" y="184" width="188" height="116" rx="20" fill="#163557"/>
  <rect x="500" y="184" width="220" height="116" rx="20" fill="#3A261B"/>
  <text x="104" y="222" fill="#CBE8F3" font-size="14" font-family="Arial" font-weight="700">BEST FUNDABLE ANSWER</text>
  <text x="104" y="258" fill="#FFFFFF" font-size="26" font-family="Arial" font-weight="700">90 / 10 SPY / G+</text>
  <text x="312" y="222" fill="#CBE8F3" font-size="14" font-family="Arial" font-weight="700">BEST BENCHMARK</text>
  <text x="312" y="258" fill="#FFFFFF" font-size="26" font-family="Arial" font-weight="700">BUY-HOLD SPY</text>
  <text x="520" y="222" fill="#F7D9C6" font-size="14" font-family="Arial" font-weight="700">MISLEADING WINNER</text>
  <text x="520" y="258" fill="#FFFFFF" font-size="26" font-family="Arial" font-weight="700">BUY-HOLD SPXL</text>
  <rect x="788" y="120" width="378" height="228" rx="26" fill="#172235" stroke="#31475B"/>
  <rect x="820" y="168" width="314" height="28" rx="14" fill="#143C46"/>
  <rect x="820" y="214" width="314" height="28" rx="14" fill="#163557"/>
  <rect x="820" y="260" width="314" height="28" rx="14" fill="#2B4B38"/>
  <text x="52" y="388" fill="#A9BED1" font-size="16" font-family="Arial" font-weight="700">BLEND FRONTIER</text>
  <rect x="52" y="408" width="1114" height="250" rx="28" fill="#111C2C" stroke="#31475B"/>
  <rect x="88" y="452" width="160" height="132" rx="18" fill="#163557"/>
  <rect x="274" y="430" width="160" height="154" rx="18" fill="#1C544C"/>
  <rect x="460" y="418" width="160" height="166" rx="18" fill="#245C53"/>
  <rect x="646" y="446" width="160" height="138" rx="18" fill="#3B4A2A"/>
  <rect x="832" y="472" width="160" height="112" rx="18" fill="#514122"/>
  <rect x="1018" y="516" width="106" height="68" rx="18" fill="#5C2D20"/>
  <text x="116" y="614" fill="#A9BED1" font-size="14" font-family="Arial">100% SPY</text>
  <text x="290" y="614" fill="#A9BED1" font-size="14" font-family="Arial">90/10</text>
  <text x="482" y="614" fill="#A9BED1" font-size="14" font-family="Arial">85/15</text>
  <text x="674" y="614" fill="#A9BED1" font-size="14" font-family="Arial">80/20</text>
  <text x="860" y="614" fill="#A9BED1" font-size="14" font-family="Arial">70/30</text>
</svg>
