<svg width="1200" height="720" viewBox="0 0 1200 720" fill="none" xmlns="http://www.w3.org/2000/svg">
  <defs>
    <linearGradient id="bg" x1="0" y1="0" x2="1200" y2="720" gradientUnits="userSpaceOnUse">
      <stop stop-color="#0B1728"/>
      <stop offset="1" stop-color="#102B31"/>
    </linearGradient>
    <linearGradient id="panel" x1="0" y1="0" x2="0" y2="1">
      <stop stop-color="#15283D"/>
      <stop offset="1" stop-color="#0D1B2A"/>
    </linearGradient>
  </defs>
  <rect width="1200" height="720" rx="36" fill="url(#bg)"/>
  <rect x="32" y="28" width="1136" height="56" rx="18" fill="#12263A"/>
  <text x="58" y="62" fill="#EAF4FF" font-size="22" font-family="Arial" font-weight="700">Vol Dashboard Codex</text>
  <rect x="814" y="42" width="120" height="28" rx="14" fill="#183B54"/>
  <rect x="946" y="42" width="102" height="28" rx="14" fill="#164D47"/>
  <rect x="1060" y="42" width="74" height="28" rx="14" fill="#3F2E13"/>
  <rect x="42" y="112" width="682" height="246" rx="26" fill="url(#panel)" stroke="#2A4561"/>
  <text x="70" y="150" fill="#77E0C3" font-size="16" font-family="Arial" font-weight="700">LIVE OPERATIONS</text>
  <text x="70" y="204" fill="#F8FBFF" font-size="48" font-family="Arial" font-weight="700">Live Trading Decision Dashboard</text>
  <text x="70" y="248" fill="#A8C1D4" font-size="22" font-family="Arial">Current call, feed health, live inputs, and guardrails</text>
  <rect x="70" y="280" width="182" height="34" rx="17" fill="#163A55"/>
  <rect x="264" y="280" width="170" height="34" rx="17" fill="#1D534A"/>
  <rect x="446" y="280" width="164" height="34" rx="17" fill="#173042"/>
  <rect x="746" y="112" width="412" height="246" rx="26" fill="url(#panel)" stroke="#2A4561"/>
  <text x="778" y="152" fill="#9FB7C8" font-size="16" font-family="Arial" font-weight="700">FAST READ</text>
  <text x="778" y="205" fill="#F8FBFF" font-size="38" font-family="Arial" font-weight="700">Risk on: 100% SPXL</text>
  <text x="778" y="246" fill="#A8C1D4" font-size="22" font-family="Arial">Live feed status: healthy</text>
  <rect x="778" y="278" width="114" height="34" rx="17" fill="#1C564E"/>
  <text x="812" y="301" fill="#E6FFF7" font-size="16" font-family="Arial" font-weight="700">FEEDS READY</text>
  <rect x="42" y="382" width="272" height="136" rx="24" fill="#122337" stroke="#284560"/>
  <rect x="330" y="382" width="272" height="136" rx="24" fill="#122337" stroke="#284560"/>
  <rect x="618" y="382" width="272" height="136" rx="24" fill="#122337" stroke="#284560"/>
  <rect x="906" y="382" width="252" height="136" rx="24" fill="#122337" stroke="#284560"/>
  <text x="66" y="420" fill="#8FA8BC" font-size="14" font-family="Arial" font-weight="700">VIX SPOT</text>
  <text x="66" y="475" fill="#F8FBFF" font-size="44" font-family="Arial" font-weight="700">18.42</text>
  <text x="354" y="420" fill="#8FA8BC" font-size="14" font-family="Arial" font-weight="700">VX1 / VX2</text>
  <text x="354" y="475" fill="#F8FBFF" font-size="44" font-family="Arial" font-weight="700">19.8 / 21.1</text>
  <text x="642" y="420" fill="#8FA8BC" font-size="14" font-family="Arial" font-weight="700">SVIX LAST</text>
  <text x="642" y="475" fill="#F8FBFF" font-size="44" font-family="Arial" font-weight="700">31.27</text>
  <text x="930" y="420" fill="#8FA8BC" font-size="14" font-family="Arial" font-weight="700">CAUTION</text>
  <text x="930" y="475" fill="#F8FBFF" font-size="44" font-family="Arial" font-weight="700">NORMAL</text>
  <rect x="42" y="542" width="1116" height="146" rx="28" fill="#0E1D2E" stroke="#27445F"/>
  <rect x="76" y="576" width="506" height="18" rx="9" fill="#1B415E"/>
  <rect x="76" y="610" width="448" height="18" rx="9" fill="#204E48"/>
  <rect x="632" y="572" width="486" height="24" rx="12" fill="#133850"/>
  <rect x="632" y="608" width="398" height="24" rx="12" fill="#174D47"/>
</svg>
